<svg width="80" height="84" viewBox="0 0 80 84" fill="none" xmlns="http://www.w3.org/2000/svg">
<g clip-path="url(#clip0_14_98)">
<path d="M0 73.169C0 79.1515 4.61829 84 10.3152 84H69.6848C75.3823 84 80 79.1508 80 73.169V10.831C80 4.84855 75.3817 0 69.6848 0H10.3152C4.61766 0 0 4.84921 0 10.831V73.169Z" fill="#563D7C"/>
<path d="M33.1743 37.1562V25.2606H43.1467C44.0964 25.2606 45.0123 25.3437 45.8942 25.5099C46.7761 25.6761 47.5563 25.9729 48.2347 26.4003C48.9131 26.8277 49.4558 27.4213 49.8628 28.1811C50.2699 28.9409 50.4734 29.9144 50.4734 31.1016C50.4734 33.2385 49.8628 34.7819 48.6417 35.7316C47.4206 36.6814 45.8603 37.1562 43.9608 37.1562H33.1743ZM22.5234 16.5703V67.4297H45.996C48.1668 67.4297 50.2811 67.1448 52.339 66.5749C54.3968 66.0051 56.2284 65.1265 57.834 63.9393C59.4395 62.7521 60.7171 61.2207 61.6669 59.3449C62.6167 57.4691 63.0915 55.2491 63.0915 52.6847C63.0915 49.503 62.3566 46.7844 60.8868 44.5287C59.4169 42.273 57.1895 40.6941 54.2045 39.7918C56.3754 38.6996 58.0149 37.2987 59.1229 35.5892C60.231 33.8796 60.785 31.7427 60.785 29.1783C60.785 26.8039 60.4119 24.8094 59.6656 23.1949C58.9194 21.5803 57.8679 20.2862 56.5111 19.3127C55.1543 18.3392 53.5262 17.6388 51.6266 17.2114C49.7271 16.784 47.6241 16.5703 45.3176 16.5703H22.5234ZM33.1743 58.7394V44.778H44.7748C47.0814 44.778 48.9357 45.336 50.3377 46.452C51.7397 47.5679 52.4407 49.4318 52.4407 52.0437C52.4407 53.3733 52.2259 54.4655 51.7962 55.3203C51.3666 56.1751 50.79 56.8518 50.0663 57.3504C49.3427 57.849 48.506 58.2052 47.5563 58.4189C46.6065 58.6326 45.6115 58.7394 44.5713 58.7394H33.1743Z" fill="white"/>
</g>
<defs>
<clipPath id="clip0_14_98">
<rect width="80" height="84" fill="white"/>
</clipPath>
</defs>
</svg>
