<svg width="80" height="84" viewBox="0 0 80 84" fill="none" xmlns="http://www.w3.org/2000/svg">
<path d="M53.3333 56C60.6971 56 66.6667 49.732 66.6667 42C66.6667 34.268 60.6971 28 53.3333 28C45.9695 28 40 34.268 40 42C40 49.732 45.9695 56 53.3333 56Z" fill="#19BCFE"/>
<path fill-rule="evenodd" clip-rule="evenodd" d="M26.6667 84C34.0305 84 40 77.732 40 70C40 67.8893 40 63.2226 40 56C34.0101 56 29.5657 56 26.6667 56C19.3029 56 13.3333 62.268 13.3333 70C13.3333 77.732 19.3029 84 26.6667 84Z" fill="#09CF83"/>
<path fill-rule="evenodd" clip-rule="evenodd" d="M26.6667 56C29.1213 56 33.5657 56 40 56V28C33.5657 28 29.1213 28 26.6667 28C19.3029 28 13.3333 34.268 13.3333 42C13.3333 49.732 19.3029 56 26.6667 56Z" fill="#A259FF"/>
<path fill-rule="evenodd" clip-rule="evenodd" d="M26.6667 28C29.1213 28 33.5657 28 40 28V0C33.5657 0 29.1213 0 26.6667 0C19.3029 0 13.3333 6.26801 13.3333 14C13.3333 21.732 19.3029 28 26.6667 28Z" fill="#F24E1E"/>
<path fill-rule="evenodd" clip-rule="evenodd" d="M53.3333 28H40V0H53.3333C60.6971 0 66.6667 6.26801 66.6667 14C66.6667 21.732 60.6971 28 53.3333 28Z" fill="#FF7262"/>
</svg>
