<svg width="74" height="74" viewBox="0 0 74 74" fill="none" xmlns="http://www.w3.org/2000/svg">
<path d="M13.6484 62.9023L8.45218 4.625H65.5478L60.3447 62.8931L36.9653 69.375L13.6484 62.9023Z" fill="#E44F26"/>
<path d="M37 64.4216L55.8931 59.1838L60.3377 9.39105H37V64.4216Z" fill="#F1662A"/>
<path d="M37 31.0037H27.5419L26.8898 23.6846H37V16.5367H36.9746H19.0781L19.2493 18.4561L21.0044 38.1516H37V31.0037Z" fill="#EBEBEB"/>
<path d="M37 49.5661L36.9676 49.5754L29.008 47.4271L28.4992 41.7267H24.6304H21.3235L22.3249 52.947L36.9676 57.0124L37 57.0031V49.5661Z" fill="#EBEBEB"/>
<path d="M36.9745 31.0037V38.1516H45.7759L44.948 47.4224L36.9745 49.573V57.01L51.6289 52.947L51.7352 51.7399L53.4141 32.923L53.5899 31.0037H51.6635H36.9745Z" fill="white"/>
<path d="M36.9745 16.5367V20.9767V23.6684V23.6846H54.2165H54.2397L54.383 22.0797L54.7091 18.4561L54.8802 16.5367H36.9745Z" fill="white"/>
</svg>
