<svg width="81" height="84" viewBox="0 0 81 84" fill="none" xmlns="http://www.w3.org/2000/svg">
<g clip-path="url(#clip0_10_36)">
<path d="M81 0H0V84H81V0Z" fill="#F1DC50"/>
<path d="M40.5 38.5C40.5 55.1222 40.5 64.4556 40.5 66.5C40.5 69.5667 38.7353 73.5 33.75 73.5C25.6993 73.5 25.3125 66.5 25.3125 66.5M70.1661 47.3061C68.1409 43.7687 65.4561 42 62.1119 42C56.8902 42 54 45.5 54 49C54 52.5 55.6875 56 62.4659 57.75C66.7793 58.8636 70.875 61.25 70.875 66.5C70.875 71.75 66.4353 73.5 62.4375 73.5C57.3283 73.5 53.9533 71.1667 52.3125 66.5" stroke="#333333" stroke-width="6.16667"/>
</g>
<defs>
<clipPath id="clip0_10_36">
<rect width="81" height="84" fill="white"/>
</clipPath>
</defs>
</svg>
