<svg width="80" height="84" viewBox="0 0 80 84" fill="none" xmlns="http://www.w3.org/2000/svg">
<path fill-rule="evenodd" clip-rule="evenodd" d="M22.425 18.0206C21.7797 18.0184 21.137 18.1066 20.5128 18.2831V18.375H20.6054C21.0524 19.1021 21.5508 19.7911 22.0961 20.4356C22.4713 21.2389 22.7977 22.0395 23.1704 22.8427C23.2167 22.7929 23.2629 22.7404 23.2629 22.7404C23.609 22.4444 23.8798 22.0587 24.0502 21.6195C24.2206 21.1802 24.2849 20.7016 24.2373 20.2282C24.0333 19.8893 23.8463 19.5388 23.677 19.1782C23.3969 18.6769 22.7904 18.4249 22.4177 18.0232" fill="#5D87A1"/>
<path fill-rule="evenodd" clip-rule="evenodd" d="M68.6949 61.8266C65.6222 61.594 62.5389 62.0738 59.6528 63.2336C58.9537 63.5355 57.8381 63.5355 57.7406 64.4884C58.1158 64.89 58.1596 65.5384 58.4885 66.0975C59.1264 67.2616 59.9464 68.298 60.9122 69.1609C61.8865 69.9641 62.8609 70.7648 63.8961 71.4683C65.7109 72.6784 67.7644 73.3793 69.5328 74.5841C70.5608 75.2876 71.5838 76.1906 72.6118 76.9466C73.1233 77.3483 73.4473 77.9966 74.1001 78.2591V78.1069C73.9083 77.549 73.6711 77.0106 73.3913 76.4978C72.926 75.999 72.4583 75.5449 71.9906 75.0435C70.6243 73.0965 68.9895 71.3862 67.1432 69.972C65.65 68.8643 62.3859 67.347 61.7842 65.5095L61.6892 65.4071C62.7818 65.2403 63.8586 64.9697 64.907 64.5986C66.4904 64.1471 67.9349 64.2495 69.5645 63.8111C70.3123 63.609 71.6642 63.1076 71.6642 63.1076V62.3201C70.8311 61.4276 70.2344 60.2333 69.3574 59.3906C66.9717 57.1464 64.4292 55.1034 61.7526 53.2796C60.3227 52.2848 58.4787 51.6443 56.9563 50.7964C56.4058 50.4971 55.4947 50.3501 55.161 49.8514C54.4038 48.6543 53.77 47.3719 53.2708 46.0268C51.9359 43.2968 50.6424 40.2701 49.4927 37.3826C48.8121 35.4475 48.0273 33.5569 47.142 31.7205C42.8703 23.894 36.7044 17.4662 29.304 13.125C27.4367 12.151 25.4514 11.4653 23.4067 11.088C22.252 11.0355 21.1023 10.9384 19.9501 10.8911C19.2064 10.366 18.4989 9.78352 17.8333 9.14814C15.1977 7.35001 8.42589 3.48601 6.48692 8.60214C5.24461 11.8335 8.33333 15.0098 9.39294 16.6504C10.2864 17.8072 11.0736 19.0546 11.7436 20.3753C12.0676 21.2205 12.1601 22.1156 12.4744 23.0003C13.1505 25.2712 13.9534 27.496 14.8786 29.6625C15.3734 30.7333 15.9435 31.7618 16.5837 32.739C16.9564 33.2876 17.5995 33.5265 17.7383 34.4321C17.2275 35.6154 16.8701 36.8688 16.6763 38.157C15.8711 40.8972 15.5747 43.7816 15.8042 46.6452C16.0337 49.5089 16.7844 52.2958 18.0136 54.8468C18.7444 56.0884 20.5031 58.821 22.8537 57.7763C24.9267 56.8838 24.4663 54.0514 25.0655 51.5708C25.2019 50.9696 25.1118 50.5759 25.387 50.1795V50.6625C25.387 50.6625 26.5636 53.4476 27.1482 54.8625C28.7381 57.4586 30.7131 59.7555 32.9944 61.6613C33.8967 62.5102 34.6237 63.5539 35.1282 64.7246V65.625H36.1683C36.1467 65.219 36.0422 64.8232 35.8625 64.4657C35.6827 64.1082 35.432 63.7977 35.1282 63.5565C34.2752 62.6104 33.4941 61.5922 32.7922 60.5115C30.8855 57.5852 29.204 54.4958 27.7645 51.2741C27.0337 49.6991 26.4174 47.9719 25.8328 46.3995C25.5649 45.7931 25.5649 44.877 25.1142 44.562C24.2821 45.623 23.5601 46.7787 22.9609 48.0086C22.2335 50.4946 21.8102 53.0722 21.7015 55.6763C21.5237 55.7288 21.6114 55.6763 21.5237 55.776C20.089 55.3691 19.5945 53.697 19.0537 52.2795C17.6568 47.9077 17.5158 43.1835 18.6494 38.724C18.9611 37.6609 20.3131 34.3114 19.7723 33.2955C19.5019 32.3269 18.6031 31.773 18.111 31.0091C17.4829 29.9815 16.9423 28.8947 16.496 27.762C15.4267 24.9375 14.8859 21.7875 13.7215 18.942C13.077 17.5735 12.3265 16.266 11.4781 15.0334C10.5396 13.8021 9.7117 12.4775 9.00564 11.0775C8.78153 10.5184 8.4673 9.60489 8.82538 8.99589C8.84954 8.82672 8.9242 8.67065 9.03803 8.55129C9.15187 8.43193 9.29869 8.35579 9.45628 8.33439C10.036 7.77789 11.6997 8.48664 12.2819 8.79114C13.8466 9.45494 15.337 10.3064 16.725 11.3295C17.3535 11.8388 18.8345 13.1276 18.8345 13.1276H19.2729C20.7637 13.4768 22.4396 13.2248 23.8427 13.6789C26.2051 14.5275 28.4596 15.6916 30.5536 17.1439C36.7254 21.3837 41.7427 27.3123 45.0935 34.3245C45.6537 35.4769 45.89 36.5348 46.4015 37.737C47.3759 40.2045 48.5938 42.7245 49.5682 45.1238C50.4278 47.4975 51.5394 49.756 52.881 51.8543C53.5777 52.9043 56.3765 53.4608 57.6359 54.012C58.7296 54.4197 59.8028 54.8885 60.8513 55.4164C62.437 56.4664 64.0179 57.6765 65.5111 58.8289C66.2541 59.4326 68.5852 60.6874 68.7265 61.6928" fill="#00758F"/>
</svg>
