<svg width="80" height="85" viewBox="0 0 80 85" fill="none" xmlns="http://www.w3.org/2000/svg">
<path d="M39.5485 68.4141C39.2776 68.4141 39.0248 68.3374 38.7901 68.2031L36.3882 66.6873C36.0271 66.4762 36.2077 66.3995 36.316 66.3611C36.8036 66.1884 36.8939 66.15 37.3995 65.843C37.4537 65.8046 37.5259 65.8238 37.5801 65.8622L39.4221 67.0326C39.4943 67.071 39.5846 67.071 39.6388 67.0326L46.8442 62.6004C46.9165 62.562 46.9526 62.4852 46.9526 62.3893V53.5439C46.9526 53.448 46.9165 53.3712 46.8442 53.3329L39.6388 48.9198C39.5666 48.8814 39.4763 48.8814 39.4221 48.9198L32.2167 53.3329C32.1445 53.3712 32.1083 53.4672 32.1083 53.5439V62.3893C32.1083 62.466 32.1445 62.562 32.2167 62.6004L34.1851 63.8092C35.2506 64.3848 35.9187 63.7132 35.9187 63.0417V54.3114C35.9187 54.1963 36.009 54.0812 36.1354 54.0812H37.0564C37.1648 54.0812 37.2731 54.1771 37.2731 54.3114V63.0417C37.2731 64.5575 36.4966 65.4401 35.1422 65.4401C34.7268 65.4401 34.4018 65.4401 33.4808 64.9604L31.5846 63.8092C31.1151 63.5214 30.8262 62.9841 30.8262 62.4085V53.5631C30.8262 52.9875 31.1151 52.4502 31.5846 52.1624L38.7901 47.7302C39.2415 47.4615 39.8555 47.4615 40.307 47.7302L47.5124 52.1624C47.9819 52.4502 48.2709 52.9875 48.2709 53.5631V62.4085C48.2709 62.9841 47.9819 63.5214 47.5124 63.8092L40.307 68.2414C40.0722 68.3566 39.8013 68.4141 39.5485 68.4141ZM41.7697 62.3317C38.6095 62.3317 37.9594 60.7967 37.9594 59.492C37.9594 59.3769 38.0496 59.2618 38.1761 59.2618H39.1151C39.2235 59.2618 39.3138 59.3385 39.3138 59.4536C39.4582 60.4706 39.8736 60.9694 41.7878 60.9694C43.3047 60.9694 43.9548 60.6049 43.9548 59.7414C43.9548 59.2426 43.7743 58.878 41.4086 58.6286C39.4402 58.4175 38.2122 57.957 38.2122 56.2877C38.2122 54.7335 39.4402 53.8125 41.4989 53.8125C43.8104 53.8125 44.9481 54.6568 45.0925 56.4988C45.0925 56.5563 45.0745 56.6139 45.0384 56.6715C45.0022 56.7098 44.9481 56.7482 44.8939 56.7482H43.9548C43.8645 56.7482 43.7743 56.6715 43.7562 56.5755C43.5395 55.5202 42.9797 55.1749 41.4989 55.1749C39.8375 55.1749 39.6388 55.7888 39.6388 56.2493C39.6388 56.8058 39.8736 56.9785 42.1129 57.2855C44.3341 57.5925 45.3815 58.0338 45.3815 59.6839C45.3634 61.3724 44.0632 62.3317 41.7697 62.3317Z" fill="#539E43"/>
<path d="M17.1919 33.8193C17.1919 33.4739 17.0113 33.1477 16.7224 32.975L9.06548 28.2933C8.93907 28.2166 8.7946 28.1782 8.65013 28.159H8.57789C8.43342 28.159 8.28895 28.2166 8.16254 28.2933L0.505659 32.975C0.21672 33.1477 0.0361328 33.4739 0.0361328 33.8193L0.0541915 46.4062C0.0541915 46.5789 0.144485 46.7515 0.288954 46.8283C0.433424 46.9242 0.614011 46.9242 0.740422 46.8283L5.29121 44.0653C5.58015 43.8926 5.76074 43.5664 5.76074 43.2211V37.3306C5.76074 36.9852 5.94132 36.659 6.23026 36.4863L8.16254 35.2967C8.30701 35.2008 8.46954 35.1624 8.63207 35.1624C8.7946 35.1624 8.95713 35.2008 9.08354 35.2967L11.0158 36.4863C11.3048 36.659 11.4853 36.9852 11.4853 37.3306V43.2211C11.4853 43.5664 11.6659 43.8926 11.9549 44.0653L16.5057 46.8283C16.6501 46.9242 16.8307 46.9242 16.9752 46.8283C17.1197 46.7515 17.2099 46.5789 17.2099 46.4062L17.1919 33.8193Z" fill="#333333"/>
<path d="M53.9955 16.4931C53.851 16.4164 53.6704 16.4164 53.544 16.4931C53.3995 16.589 53.3093 16.7425 53.3093 16.9152V29.387C53.3093 29.5021 53.2551 29.6173 53.1467 29.694C53.0384 29.7516 52.93 29.7516 52.8217 29.694L50.9074 28.5236C50.6185 28.3509 50.2754 28.3509 49.9865 28.5236L42.3296 33.2245C42.0406 33.3972 41.86 33.7234 41.86 34.0687V43.4513C41.86 43.7967 42.0406 44.1229 42.3296 44.2956L49.9865 48.9965C50.2754 49.1692 50.6185 49.1692 50.9074 48.9965L58.5643 44.2956C58.8533 44.1229 59.0339 43.7967 59.0339 43.4513V20.062C59.0339 19.6974 58.8533 19.3712 58.5643 19.1985L53.9955 16.4931ZM53.2912 40.3622C53.2912 40.4581 53.2551 40.5349 53.1828 40.5732L50.5643 42.185C50.4921 42.2234 50.4018 42.2234 50.3296 42.185L47.7111 40.5732C47.6388 40.5349 47.6027 40.4389 47.6027 40.3622V37.1387C47.6027 37.0428 47.6388 36.966 47.7111 36.9276L50.3296 35.3159C50.4018 35.2775 50.4921 35.2775 50.5643 35.3159L53.1828 36.9276C53.2551 36.966 53.2912 37.062 53.2912 37.1387V40.3622Z" fill="#333333"/>
<path d="M79.4763 37.0619C79.7652 36.8893 79.9278 36.5631 79.9278 36.2177V33.9344C79.9278 33.589 79.7472 33.2628 79.4763 33.0902L71.8736 28.4084C71.5846 28.2358 71.2415 28.2358 70.9526 28.4084L63.2957 33.1093C63.0068 33.282 62.8262 33.6082 62.8262 33.9536V43.3362C62.8262 43.6816 63.0068 44.0078 63.2957 44.1805L70.8984 48.7854C71.1873 48.9581 71.5305 48.9581 71.8013 48.7854L76.4063 46.0608C76.5508 45.9841 76.6411 45.8114 76.6411 45.6387C76.6411 45.466 76.5508 45.2933 76.4063 45.2166L68.7133 40.5157C68.5688 40.4197 68.4785 40.2662 68.4785 40.0935V37.1579C68.4785 36.9852 68.5688 36.8125 68.7133 36.7358L71.1151 35.2775C71.2596 35.1816 71.4402 35.1816 71.5846 35.2775L73.9864 36.7358C74.1309 36.8317 74.2212 36.9852 74.2212 37.1579V39.4604C74.2212 39.633 74.3115 39.8057 74.456 39.8825C74.6004 39.9784 74.781 39.9784 74.9255 39.8825L79.4763 37.0619Z" fill="#333333"/>
<path d="M71.2957 36.6206C71.3499 36.5823 71.4221 36.5823 71.4763 36.6206L72.9391 37.5224C72.9932 37.5608 73.0294 37.6184 73.0294 37.6951V39.4987C73.0294 39.5755 72.9932 39.6331 72.9391 39.6714L71.4763 40.5732C71.4221 40.6116 71.3499 40.6116 71.2957 40.5732L69.833 39.6714C69.7788 39.6331 69.7427 39.5755 69.7427 39.4987V37.6951C69.7427 37.6184 69.7788 37.5608 69.833 37.5224L71.2957 36.6206Z" fill="#539E43"/>
<path d="M29.9955 28.4468C29.7066 28.2742 29.3634 28.2742 29.0745 28.4468L21.4718 33.1094C21.1829 33.2821 21.0203 33.6082 21.0203 33.9536V43.2979C21.0203 43.6432 21.2009 43.9694 21.4718 44.1421L29.0745 48.8046C29.3634 48.9773 29.7066 48.9773 29.9955 48.8046L37.5982 44.1421C37.8871 43.9694 38.0497 43.6432 38.0497 43.2979V33.9536C38.0497 33.6082 37.8691 33.2821 37.5982 33.1094L29.9955 28.4468Z" fill="url(#paint0_linear_14_68)"/>
<defs>
<linearGradient id="paint0_linear_14_68" x1="1182.22" y1="388.84" x2="275.147" y2="1730.23" gradientUnits="userSpaceOnUse">
<stop stop-color="#41873F"/>
<stop offset="0.3288" stop-color="#418B3D"/>
<stop offset="0.6352" stop-color="#419637"/>
<stop offset="0.9319" stop-color="#3FA92D"/>
<stop offset="1" stop-color="#3FAE2A"/>
</linearGradient>
</defs>
</svg>
