<svg width="80" height="84" viewBox="0 0 80 84" fill="none" xmlns="http://www.w3.org/2000/svg">
<path d="M65.7761 28.8171C64.9462 28.5172 64.0862 28.2334 63.2008 27.965C63.3463 27.3414 63.4799 26.7258 63.5986 26.1207C65.5481 16.1847 64.2735 8.18024 59.921 5.54482C55.7476 3.0178 48.9223 5.65262 42.029 11.9516C41.3662 12.5573 40.7015 13.1985 40.037 13.8706C39.5943 13.426 39.1523 12.9962 38.7114 12.5852C31.4871 5.84999 24.2458 3.01167 19.8977 5.65471C15.7282 8.18906 14.4935 15.714 16.2483 25.1304C16.4177 26.04 16.6158 26.9688 16.8398 27.9131C15.815 28.2186 14.8256 28.5443 13.8789 28.8907C5.40916 31.9913 0 36.8506 0 41.8911C0 47.0969 5.80674 52.3184 14.6286 55.4844C15.3248 55.7343 16.0472 55.9705 16.7917 56.1948C16.55 57.2162 16.3398 58.217 16.1634 59.1932C14.4902 68.4462 15.7969 75.7934 19.9552 78.3118C24.2504 80.9125 31.4589 78.2393 38.4782 71.7968C39.033 71.2875 39.5897 70.7475 40.1475 70.1814C40.8705 70.9124 41.5923 71.6042 42.3103 72.2531C49.1093 78.3964 55.8244 80.8771 59.9789 78.3517C64.2698 75.7435 65.6643 67.8508 63.8538 58.2481C63.7155 57.5147 63.5546 56.7655 63.3739 56.003C63.8802 55.8458 64.3771 55.6836 64.8617 55.5149C74.0329 52.3243 80 47.1664 80 41.8911C80 36.8324 74.4164 31.9403 65.7761 28.8171ZM63.7869 52.1087C63.3494 52.2608 62.9006 52.4078 62.4432 52.5503C61.4308 49.1847 60.0643 45.606 58.3921 41.9086C59.9878 38.2992 61.3015 34.7662 62.2856 31.4225C63.1039 31.6712 63.8982 31.9334 64.6636 32.2102C72.0667 34.8861 76.5824 38.8425 76.5824 41.8911C76.5824 45.1383 71.7056 49.3537 63.7869 52.1087ZM60.5012 58.945C61.3017 63.1912 61.4161 67.0303 60.8858 70.0314C60.4093 72.7281 59.4511 74.5261 58.2664 75.2462C55.7452 76.7785 50.3537 74.7867 44.5391 69.5329C43.8725 68.9307 43.2011 68.2876 42.5276 67.607C44.7818 65.0183 47.0346 62.009 49.2334 58.6668C53.1008 58.3064 56.7547 57.7173 60.0681 56.9131C60.2313 57.6043 60.3763 58.2822 60.5012 58.945ZM27.2738 74.9814C24.8106 75.8948 22.8488 75.921 21.6629 75.203C19.1394 73.6747 18.0904 67.7756 19.5213 59.8625C19.6852 58.9562 19.8803 58.0253 20.1052 57.0738C23.3823 57.8347 27.0094 58.3823 30.886 58.7122C33.0996 61.9827 35.4176 64.9887 37.7535 67.6209C37.2432 68.1382 36.7348 68.6307 36.2293 69.0948C33.1254 71.9436 30.015 73.9648 27.2738 74.9814ZM15.7339 52.0889C11.8331 50.6889 8.61158 48.8694 6.40339 46.8839C4.41921 45.0997 3.41743 43.3284 3.41743 41.8911C3.41743 38.8324 7.76046 34.931 15.0039 32.2792C15.8827 31.9575 16.8028 31.6543 17.7576 31.3694C18.7586 34.7886 20.0718 38.3635 21.6566 41.9784C20.0513 45.647 18.7195 49.2788 17.7086 52.7381C17.0279 52.5326 16.3685 52.3164 15.7339 52.0889ZM19.6022 24.4413C18.0988 16.3736 19.0973 10.2876 21.6099 8.76037C24.2863 7.13346 30.2045 9.45309 36.4422 15.2686C36.8409 15.6403 37.2412 16.0294 37.6426 16.4319C35.3182 19.0525 33.0215 22.036 30.8275 25.2871C27.0651 25.6533 23.4635 26.2415 20.1522 27.0292C19.944 26.1499 19.7596 25.2859 19.6022 24.4413ZM54.1106 33.3884C53.319 31.9527 52.5063 30.551 51.6779 29.1875C54.2304 29.5263 56.6759 29.9761 58.9725 30.5264C58.283 32.8467 57.4236 35.2726 56.412 37.7596C55.6864 36.313 54.9188 34.8544 54.1106 33.3884ZM40.0382 18.9964C41.6145 20.7896 43.1932 22.7917 44.7459 24.9639C43.1812 24.8863 41.5971 24.8459 40 24.8459C38.4179 24.8459 36.8456 24.8854 35.2906 24.9616C36.8449 22.8096 38.4372 20.8102 40.0382 18.9964ZM25.8756 33.4132C25.0849 34.8529 24.3316 36.3035 23.6173 37.7569C22.6221 35.2786 21.7707 32.8416 21.0752 30.4885C23.3577 29.9521 25.7917 29.5136 28.328 29.1812C27.4878 30.5572 26.6685 31.9696 25.8756 33.4132ZM28.401 54.8569C25.7806 54.5499 23.31 54.134 21.028 53.6124C21.7346 51.2173 22.6048 48.7283 23.6211 46.1966C24.3373 47.6489 25.0935 49.1001 25.8891 50.543C26.6995 52.0129 27.5392 53.4528 28.401 54.8569ZM40.1327 65.0387C38.5129 63.2036 36.8973 61.1738 35.3193 58.9903C36.8511 59.0534 38.4128 59.0857 40 59.0857C41.6306 59.0857 43.2426 59.0472 44.8292 58.973C43.2713 61.1957 41.6984 63.2288 40.1327 65.0387ZM56.4447 46.0676C57.5139 48.6266 58.4153 51.1026 59.131 53.4569C56.8115 54.0126 54.3071 54.4601 51.6685 54.7926C52.4989 53.4107 53.3187 51.9849 54.1243 50.5183C54.9392 49.0345 55.713 47.5484 56.4447 46.0676ZM51.1639 48.7256C49.9134 51.0023 48.6295 53.1757 47.3261 55.2273C44.9522 55.4055 42.4997 55.4973 40 55.4973C37.5104 55.4973 35.0888 55.4161 32.7569 55.2572C31.401 53.1787 30.0892 50.9989 28.8466 48.7452C27.6073 46.4976 26.467 44.231 25.4334 41.9772C26.4667 39.7181 27.6043 37.449 28.8365 35.2055L28.8362 35.2059C30.0717 32.9564 31.3719 30.7872 32.7153 28.7217C35.0945 28.5329 37.5342 28.4344 39.9999 28.4344C42.4766 28.4344 44.9196 28.5336 47.2981 28.7241C48.621 30.7745 49.9124 32.9367 51.1527 35.1865C52.4071 37.4616 53.5594 39.7156 54.6014 41.9262C53.5625 44.1748 52.4128 46.4515 51.1639 48.7256ZM58.214 8.65361C60.8929 10.2757 61.9347 16.8178 60.2515 25.3964C60.1442 25.9438 60.0233 26.5014 59.892 27.0664C56.573 26.2623 52.9688 25.6639 49.1954 25.2922C46.9972 22.0054 44.7192 19.0172 42.4327 16.4302C43.0475 15.8093 43.6614 15.2172 44.2727 14.6584C50.1788 9.26156 55.6989 7.13076 58.214 8.65361ZM40 34.3902C43.9453 34.3902 47.1437 37.7483 47.1437 41.8911C47.1437 46.0336 43.9453 49.392 40 49.392C36.0547 49.392 32.8563 46.0336 32.8563 41.8911C32.8563 37.7483 36.0547 34.3902 40 34.3902Z" fill="#00D8FF"/>
</svg>
