<svg width="81" height="84" viewBox="0 0 81 84" fill="none" xmlns="http://www.w3.org/2000/svg">
<path d="M73.4316 13.2037L58.8364 5.91674C58.0122 5.50461 57.0847 5.36861 56.1826 5.52758C55.2805 5.68656 54.4484 6.13264 53.8017 6.80399L6.0244 51.975C5.44472 52.5205 5.09773 53.2824 5.05975 54.0932C5.02178 54.904 5.29593 55.6972 5.8219 56.2984C5.88518 56.3692 5.94846 56.4375 6.01681 56.5005L9.91746 60.1755C10.4272 60.6566 11.0832 60.9373 11.7718 60.969C12.4603 61.0006 13.1377 60.7812 13.6865 60.3487L71.2345 15.0937C71.6691 14.7517 72.1872 14.5422 72.7305 14.489C73.2737 14.4357 73.8205 14.5408 74.3093 14.7923C74.7981 15.0439 75.2094 15.4319 75.4971 15.9127C75.7848 16.3936 75.9373 16.9481 75.9375 17.514V17.3381C75.9375 16.4742 75.7023 15.6279 75.2589 14.8965C74.8156 14.1651 74.1822 13.5784 73.4316 13.2037Z" fill="#0065A9"/>
<path d="M73.4316 70.7963L58.8364 78.0859C58.0119 78.4969 57.0847 78.6322 56.1829 78.4733C55.281 78.3144 54.449 77.869 53.8017 77.1986L6.0244 32.025C5.44472 31.4795 5.09773 30.7176 5.05975 29.9068C5.02178 29.096 5.29593 28.3028 5.8219 27.7016C5.88518 27.6308 5.94846 27.5625 6.01681 27.4995L9.91746 23.8245C10.4277 23.3414 11.0853 23.0594 11.7755 23.0278C12.4657 22.9961 13.1447 23.2168 13.6941 23.6513L71.2345 68.9063C71.6691 69.2483 72.1872 69.4578 72.7305 69.511C73.2737 69.5643 73.8205 69.4592 74.3093 69.2077C74.7981 68.9562 75.2094 68.5681 75.4971 68.0873C75.7848 67.6064 75.9373 67.0519 75.9375 66.486V66.675C75.9348 67.5366 75.6983 68.38 75.2552 69.1088C74.812 69.8376 74.1801 70.4224 73.4316 70.7963Z" fill="#007ACC"/>
<path d="M58.8363 78.0859C58.0119 78.4968 57.0847 78.6322 56.1828 78.4733C55.281 78.3143 54.449 77.869 53.8017 77.1986C54.1652 77.5707 54.6265 77.8232 55.1278 77.9245C55.6291 78.0259 56.148 77.9715 56.6197 77.7683C57.0913 77.5651 57.4946 77.2221 57.7791 76.7822C58.0635 76.3423 58.2165 75.8251 58.2187 75.2955V8.7045C58.2191 8.17238 58.0673 7.6521 57.7823 7.20957C57.4974 6.76704 57.0922 6.42218 56.6181 6.21865C56.144 6.01513 55.6223 5.96211 55.1191 6.06632C54.616 6.17052 54.1539 6.42725 53.7916 6.804C54.4384 6.13289 55.2703 5.68678 56.1722 5.52736C57.0742 5.36794 58.0016 5.50309 58.8262 5.91412L73.4189 13.1906C74.1719 13.5634 74.8079 14.1493 75.2535 14.8809C75.6992 15.6124 75.9363 16.4597 75.9375 17.325V66.675C75.9377 67.5396 75.7023 68.3867 75.2585 69.1186C74.8147 69.8506 74.1805 70.4376 73.429 70.812L58.8363 78.0859Z" fill="#1F9CF0"/>
</svg>
